# xmcd
#
# Track frame offsets:
#	150
#	17130
#	32805
#	49935
#	71150
#	85345
#	100042
#	120492
#	139822
#	156802
#	174637
#	191767
#	212985
#	227180
#	241877
#	262327
#
# Disc length: 3755 seconds
#
# Revision: 1
# Processed by: cddbd v1.5.2PL0 Copyright (c) Steve Scherf et al.
# Submitted via: audiograbber 1.83.01
#
DISCID=eb0ea910
DTITLE=Various Artist - GUYS SING COUNTRY 
DYEAR=1900
DGENRE=
TTITLE0=FAMOUS LAST WORDS OF A FOOL
TTITLE1=ALL OF ME
TTITLE2=FOREVER AND EVER AMEN
TTITLE3=I SWEAR
TTITLE4=A LITTLE LESS TALK and ALOT MORE ACTION
TTITLE5=ADDICTED TO A DOLLAR
TTITLE6=DONT TAKE THE GIRL
TTITLE7=THE DANCE
TTITLE8=FAMOUS LAST WORDS OF A FOOL - VOCAL
TTITLE9=ALL OF ME - VOCAL
TTITLE10=FOREVER and EVER AMEN - VOCAL 
TTITLE11=I SWEAR - VOCAL
TTITLE12=A LITTLE LESS TALK - VOCAL 
TTITLE13=ADDICTED TO A DOLLAR - VOCAL 
TTITLE14=DONT TAKE THE GIRL - VOCAL 
TTITLE15=THE DANCE - VOCAL 
EXTD=
EXTT0=
EXTT1=
EXTT2=
EXTT3=
EXTT4=
EXTT5=
EXTT6=
EXTT7=
EXTT8=
EXTT9=
EXTT10=
EXTT11=
EXTT12=
EXTT13=
EXTT14=
EXTT15=
PLAYORDER=
